<svg xmlns="http://www.w3.org/2000/svg" width="900" height="294" viewBox="0 0 900 294" role="img"><title>Contribution activity</title><desc>2026-09-09 to 2026-10-09 | Last 31 days | Today is partial</desc><style>text{font-family:Arial,Helvetica,sans-serif}</style><rect width="900" height="294" rx="8" fill="#1a1b26"/><text x="24" y="34" font-size="20" fill="#c0caf5" font-weight="700">Contribution activity</text><text x="24" y="57" font-size="11" fill="#a9b1d6" >2026-09-09 to 2026-10-09 | Last 31 days | Today is partial</text><path d="M48 230 H870" stroke="#30344a"/><text x="36" y="234" font-size="10" fill="#a9b1d6" text-anchor="end">0</text><path d="M48 196 H870" stroke="#30344a"/><text x="36" y="200" font-size="10" fill="#a9b1d6" text-anchor="end">5</text><path d="M48 162 H870" stroke="#30344a"/><text x="36" y="166" font-size="10" fill="#a9b1d6" text-anchor="end">10</text><path d="M48 128 H870" stroke="#30344a"/><text x="36" y="132" font-size="10" fill="#a9b1d6" text-anchor="end">15</text><path d="M48 94 H870" stroke="#30344a"/><text x="36" y="98" font-size="10" fill="#a9b1d6" text-anchor="end">20</text><polygon points="48,230 48.0,128.0 75.4,216.4 102.8,230.0 130.2,100.8 157.6,230.0 185.0,230.0 212.4,230.0 239.8,230.0 267.2,175.6 294.6,230.0 322.0,230.0 349.4,230.0 376.8,128.0 404.2,182.4 431.6,148.4 459.0,189.2 486.4,223.2 513.8,121.2 541.2,196.0 568.6,189.2 596.0,209.6 623.4,162.0 650.8,182.4 678.2,202.8 705.6,223.2 733.0,230.0 760.4,175.6 787.8,223.2 815.2,189.2 842.6,175.6 870.0,223.2 870,230" fill="#7aa2f7" fill-opacity="0.10"/><polyline points="48.0,128.0 75.4,216.4 102.8,230.0 130.2,100.8 157.6,230.0 185.0,230.0 212.4,230.0 239.8,230.0 267.2,175.6 294.6,230.0 322.0,230.0 349.4,230.0 376.8,128.0 404.2,182.4 431.6,148.4 459.0,189.2 486.4,223.2 513.8,121.2 541.2,196.0 568.6,189.2 596.0,209.6 623.4,162.0 650.8,182.4 678.2,202.8 705.6,223.2 733.0,230.0 760.4,175.6 787.8,223.2 815.2,189.2 842.6,175.6 870.0,223.2" fill="none" stroke="#7aa2f7" stroke-width="2.5" stroke-linejoin="round"/><circle cx="48.0" cy="128.0" r="3" fill="#7dcfff"><title>2026-09-09: 15 contributions</title></circle><circle cx="75.4" cy="216.4" r="3" fill="#7dcfff"><title>2026-09-10: 2 contributions</title></circle><circle cx="102.8" cy="230.0" r="3" fill="#7dcfff"><title>2026-09-11: 0 contributions</title></circle><circle cx="130.2" cy="100.8" r="3" fill="#7dcfff"><title>2026-09-12: 19 contributions</title></circle><circle cx="157.6" cy="230.0" r="3" fill="#7dcfff"><title>2026-09-13: 0 contributions</title></circle><circle cx="185.0" cy="230.0" r="3" fill="#7dcfff"><title>2026-09-14: 0 contributions</title></circle><circle cx="212.4" cy="230.0" r="3" fill="#7dcfff"><title>2026-09-15: 0 contributions</title></circle><circle cx="239.8" cy="230.0" r="3" fill="#7dcfff"><title>2026-09-16: 0 contributions</title></circle><circle cx="267.2" cy="175.6" r="3" fill="#7dcfff"><title>2026-09-17: 8 contributions</title></circle><circle cx="294.6" cy="230.0" r="3" fill="#7dcfff"><title>2026-09-18: 0 contributions</title></circle><circle cx="322.0" cy="230.0" r="3" fill="#7dcfff"><title>2026-09-19: 0 contributions</title></circle><circle cx="349.4" cy="230.0" r="3" fill="#7dcfff"><title>2026-09-20: 0 contributions</title></circle><circle cx="376.8" cy="128.0" r="3" fill="#7dcfff"><title>2026-09-21: 15 contributions</title></circle><circle cx="404.2" cy="182.4" r="3" fill="#7dcfff"><title>2026-09-22: 7 contributions</title></circle><circle cx="431.6" cy="148.4" r="3" fill="#7dcfff"><title>2026-09-23: 12 contributions</title></circle><circle cx="459.0" cy="189.2" r="3" fill="#7dcfff"><title>2026-09-24: 6 contributions</title></circle><circle cx="486.4" cy="223.2" r="3" fill="#7dcfff"><title>2026-09-25: 1 contributions</title></circle><circle cx="513.8" cy="121.2" r="3" fill="#7dcfff"><title>2026-09-26: 16 contributions</title></circle><circle cx="541.2" cy="196.0" r="3" fill="#7dcfff"><title>2026-09-27: 5 contributions</title></circle><circle cx="568.6" cy="189.2" r="3" fill="#7dcfff"><title>2026-09-28: 6 contributions</title></circle><circle cx="596.0" cy="209.6" r="3" fill="#7dcfff"><title>2026-09-29: 3 contributions</title></circle><circle cx="623.4" cy="162.0" r="3" fill="#7dcfff"><title>2026-09-30: 10 contributions</title></circle><circle cx="650.8" cy="182.4" r="3" fill="#7dcfff"><title>2026-10-01: 7 contributions</title></circle><circle cx="678.2" cy="202.8" r="3" fill="#7dcfff"><title>2026-10-02: 4 contributions</title></circle><circle cx="705.6" cy="223.2" r="3" fill="#7dcfff"><title>2026-10-03: 1 contributions</title></circle><circle cx="733.0" cy="230.0" r="3" fill="#7dcfff"><title>2026-10-04: 0 contributions</title></circle><circle cx="760.4" cy="175.6" r="3" fill="#7dcfff"><title>2026-10-05: 8 contributions</title></circle><circle cx="787.8" cy="223.2" r="3" fill="#7dcfff"><title>2026-10-06: 1 contributions</title></circle><circle cx="815.2" cy="189.2" r="3" fill="#7dcfff"><title>2026-10-07: 6 contributions</title></circle><circle cx="842.6" cy="175.6" r="3" fill="#7dcfff"><title>2026-10-08: 8 contributions</title></circle><circle cx="870.0" cy="223.2" r="3" fill="#7dcfff"><title>2026-10-09: 1 contributions</title></circle><text x="48.0" y="253" font-size="10" fill="#a9b1d6" text-anchor="middle">09-09</text><text x="185.0" y="253" font-size="10" fill="#a9b1d6" text-anchor="middle">09-14</text><text x="322.0" y="253" font-size="10" fill="#a9b1d6" text-anchor="middle">09-19</text><text x="459.0" y="253" font-size="10" fill="#a9b1d6" text-anchor="middle">09-24</text><text x="596.0" y="253" font-size="10" fill="#a9b1d6" text-anchor="middle">09-29</text><text x="733.0" y="253" font-size="10" fill="#a9b1d6" text-anchor="middle">10-04</text><text x="870.0" y="253" font-size="10" fill="#a9b1d6" text-anchor="middle">10-09</text><text x="870" y="34" font-size="16" fill="#9ece6a" text-anchor="end">161 contributions</text><text x="24" y="278" font-size="10" fill="#8992b0" >Updated 2026-10-09 23:18 UTC | GitHub</text></svg>