<svg xmlns="http://www.w3.org/2000/svg" width="900" height="294" viewBox="0 0 900 294" role="img"><title>Contribution activity</title><desc>2026-08-21 to 2026-09-20 | Last 31 days | Today is partial</desc><style>text{font-family:Arial,Helvetica,sans-serif}</style><rect width="900" height="294" rx="8" fill="#1a1b26"/><text x="24" y="34" font-size="20" fill="#c0caf5" font-weight="700">Contribution activity</text><text x="24" y="57" font-size="11" fill="#a9b1d6" >2026-08-21 to 2026-09-20 | Last 31 days | Today is partial</text><path d="M48 230 H870" stroke="#30344a"/><text x="36" y="234" font-size="10" fill="#a9b1d6" text-anchor="end">0</text><path d="M48 196 H870" stroke="#30344a"/><text x="36" y="200" font-size="10" fill="#a9b1d6" text-anchor="end">7</text><path d="M48 162 H870" stroke="#30344a"/><text x="36" y="166" font-size="10" fill="#a9b1d6" text-anchor="end">14</text><path d="M48 128 H870" stroke="#30344a"/><text x="36" y="132" font-size="10" fill="#a9b1d6" text-anchor="end">21</text><path d="M48 94 H870" stroke="#30344a"/><text x="36" y="98" font-size="10" fill="#a9b1d6" text-anchor="end">28</text><polygon points="48,230 48.0,230.0 75.4,230.0 102.8,230.0 130.2,230.0 157.6,230.0 185.0,230.0 212.4,230.0 239.8,230.0 267.2,230.0 294.6,230.0 322.0,230.0 349.4,230.0 376.8,230.0 404.2,230.0 431.6,230.0 459.0,230.0 486.4,230.0 513.8,220.3 541.2,108.6 568.6,157.1 596.0,220.3 623.4,230.0 650.8,137.7 678.2,230.0 705.6,230.0 733.0,230.0 760.4,230.0 787.8,191.1 815.2,230.0 842.6,230.0 870.0,230.0 870,230" fill="#7aa2f7" fill-opacity="0.10"/><polyline points="48.0,230.0 75.4,230.0 102.8,230.0 130.2,230.0 157.6,230.0 185.0,230.0 212.4,230.0 239.8,230.0 267.2,230.0 294.6,230.0 322.0,230.0 349.4,230.0 376.8,230.0 404.2,230.0 431.6,230.0 459.0,230.0 486.4,230.0 513.8,220.3 541.2,108.6 568.6,157.1 596.0,220.3 623.4,230.0 650.8,137.7 678.2,230.0 705.6,230.0 733.0,230.0 760.4,230.0 787.8,191.1 815.2,230.0 842.6,230.0 870.0,230.0" fill="none" stroke="#7aa2f7" stroke-width="2.5" stroke-linejoin="round"/><circle cx="48.0" cy="230.0" r="3" fill="#7dcfff"><title>2026-08-21: 0 contributions</title></circle><circle cx="75.4" cy="230.0" r="3" fill="#7dcfff"><title>2026-08-22: 0 contributions</title></circle><circle cx="102.8" cy="230.0" r="3" fill="#7dcfff"><title>2026-08-23: 0 contributions</title></circle><circle cx="130.2" cy="230.0" r="3" fill="#7dcfff"><title>2026-08-24: 0 contributions</title></circle><circle cx="157.6" cy="230.0" r="3" fill="#7dcfff"><title>2026-08-25: 0 contributions</title></circle><circle cx="185.0" cy="230.0" r="3" fill="#7dcfff"><title>2026-08-26: 0 contributions</title></circle><circle cx="212.4" cy="230.0" r="3" fill="#7dcfff"><title>2026-08-27: 0 contributions</title></circle><circle cx="239.8" cy="230.0" r="3" fill="#7dcfff"><title>2026-08-28: 0 contributions</title></circle><circle cx="267.2" cy="230.0" r="3" fill="#7dcfff"><title>2026-08-29: 0 contributions</title></circle><circle cx="294.6" cy="230.0" r="3" fill="#7dcfff"><title>2026-08-30: 0 contributions</title></circle><circle cx="322.0" cy="230.0" r="3" fill="#7dcfff"><title>2026-08-31: 0 contributions</title></circle><circle cx="349.4" cy="230.0" r="3" fill="#7dcfff"><title>2026-09-01: 0 contributions</title></circle><circle cx="376.8" cy="230.0" r="3" fill="#7dcfff"><title>2026-09-02: 0 contributions</title></circle><circle cx="404.2" cy="230.0" r="3" fill="#7dcfff"><title>2026-09-03: 0 contributions</title></circle><circle cx="431.6" cy="230.0" r="3" fill="#7dcfff"><title>2026-09-04: 0 contributions</title></circle><circle cx="459.0" cy="230.0" r="3" fill="#7dcfff"><title>2026-09-05: 0 contributions</title></circle><circle cx="486.4" cy="230.0" r="3" fill="#7dcfff"><title>2026-09-06: 0 contributions</title></circle><circle cx="513.8" cy="220.3" r="3" fill="#7dcfff"><title>2026-09-07: 2 contributions</title></circle><circle cx="541.2" cy="108.6" r="3" fill="#7dcfff"><title>2026-09-08: 25 contributions</title></circle><circle cx="568.6" cy="157.1" r="3" fill="#7dcfff"><title>2026-09-09: 15 contributions</title></circle><circle cx="596.0" cy="220.3" r="3" fill="#7dcfff"><title>2026-09-10: 2 contributions</title></circle><circle cx="623.4" cy="230.0" r="3" fill="#7dcfff"><title>2026-09-11: 0 contributions</title></circle><circle cx="650.8" cy="137.7" r="3" fill="#7dcfff"><title>2026-09-12: 19 contributions</title></circle><circle cx="678.2" cy="230.0" r="3" fill="#7dcfff"><title>2026-09-13: 0 contributions</title></circle><circle cx="705.6" cy="230.0" r="3" fill="#7dcfff"><title>2026-09-14: 0 contributions</title></circle><circle cx="733.0" cy="230.0" r="3" fill="#7dcfff"><title>2026-09-15: 0 contributions</title></circle><circle cx="760.4" cy="230.0" r="3" fill="#7dcfff"><title>2026-09-16: 0 contributions</title></circle><circle cx="787.8" cy="191.1" r="3" fill="#7dcfff"><title>2026-09-17: 8 contributions</title></circle><circle cx="815.2" cy="230.0" r="3" fill="#7dcfff"><title>2026-09-18: 0 contributions</title></circle><circle cx="842.6" cy="230.0" r="3" fill="#7dcfff"><title>2026-09-19: 0 contributions</title></circle><circle cx="870.0" cy="230.0" r="3" fill="#7dcfff"><title>2026-09-20: 0 contributions</title></circle><text x="48.0" y="253" font-size="10" fill="#a9b1d6" text-anchor="middle">08-21</text><text x="185.0" y="253" font-size="10" fill="#a9b1d6" text-anchor="middle">08-26</text><text x="322.0" y="253" font-size="10" fill="#a9b1d6" text-anchor="middle">08-31</text><text x="459.0" y="253" font-size="10" fill="#a9b1d6" text-anchor="middle">09-05</text><text x="596.0" y="253" font-size="10" fill="#a9b1d6" text-anchor="middle">09-10</text><text x="733.0" y="253" font-size="10" fill="#a9b1d6" text-anchor="middle">09-15</text><text x="870.0" y="253" font-size="10" fill="#a9b1d6" text-anchor="middle">09-20</text><text x="870" y="34" font-size="16" fill="#9ece6a" text-anchor="end">71 contributions</text><text x="24" y="278" font-size="10" fill="#8992b0" >Updated 2026-09-20 16:51 UTC | GitHub</text></svg>