<svg xmlns="http://www.w3.org/2000/svg" width="450" height="278" viewBox="0 0 450 278" role="img"><title>Primary languages</title><desc>Repository count | Not code volume or commit share</desc><style>text{font-family:Arial,Helvetica,sans-serif}</style><rect width="450" height="278" rx="8" fill="#1a1b26"/><text x="24" y="34" font-size="20" fill="#c0caf5" font-weight="700">Primary languages</text><text x="24" y="57" font-size="11" fill="#a9b1d6" >Repository count | Not code volume or commit share</text><text x="24" y="85" font-size="12" fill="#a9b1d6" >Python</text><text x="425" y="85" font-size="11" fill="#a9b1d6" text-anchor="end">5 / 15</text><rect x="160" y="76" width="200" height="8" rx="4" fill="#30344a"/><rect x="160" y="76" width="66.7" height="8" rx="4" fill="#7aa2f7"/><text x="24" y="112" font-size="12" fill="#a9b1d6" >HTML</text><text x="425" y="112" font-size="11" fill="#a9b1d6" text-anchor="end">3 / 15</text><rect x="160" y="103" width="200" height="8" rx="4" fill="#30344a"/><rect x="160" y="103" width="40.0" height="8" rx="4" fill="#9ece6a"/><text x="24" y="139" font-size="12" fill="#a9b1d6" >JavaScript</text><text x="425" y="139" font-size="11" fill="#a9b1d6" text-anchor="end">3 / 15</text><rect x="160" y="130" width="200" height="8" rx="4" fill="#30344a"/><rect x="160" y="130" width="40.0" height="8" rx="4" fill="#e0af68"/><text x="24" y="166" font-size="12" fill="#a9b1d6" >Not detected</text><text x="425" y="166" font-size="11" fill="#a9b1d6" text-anchor="end">2 / 15</text><rect x="160" y="157" width="200" height="8" rx="4" fill="#30344a"/><rect x="160" y="157" width="26.7" height="8" rx="4" fill="#bb9af7"/><text x="24" y="193" font-size="12" fill="#a9b1d6" >Vue</text><text x="425" y="193" font-size="11" fill="#a9b1d6" text-anchor="end">1 / 15</text><rect x="160" y="184" width="200" height="8" rx="4" fill="#30344a"/><rect x="160" y="184" width="13.3" height="8" rx="4" fill="#7dcfff"/><text x="24" y="220" font-size="12" fill="#a9b1d6" >Jupyter Notebook</text><text x="425" y="220" font-size="11" fill="#a9b1d6" text-anchor="end">1 / 15</text><rect x="160" y="211" width="200" height="8" rx="4" fill="#30344a"/><rect x="160" y="211" width="13.3" height="8" rx="4" fill="#f7768e"/><text x="24" y="262" font-size="10" fill="#8992b0" >Updated 2026-09-22 12:40 UTC | GitHub</text></svg>